# xmcd CD database file
#
# Track frame offsets:
#	150
#	16318
#	37936
#	70933
#	97732
#	116841
#
# Disc length: 2030 seconds
#
# Revision: 2
# Processed by: cddbd v1.5.2PL0 Copyright (c) Steve Scherf et al.
# Submitted via: CDex 1.81
#
DISCID=4107ec06
DTITLE=Eric Gale - Forecast
DYEAR=1973
DGENRE=Fusion
TTITLE0=Killing Me Softly With His Song
TTITLE1=Cleopatra
TTITLE2=Dindi
TTITLE3=White Moth
TTITLE4=Tonsue Corte
TTITLE5=Forecast
EXTD=YEAR: 1973
EXTT0=
EXTT1=
EXTT2=
EXTT3=
EXTT4=
EXTT5=
PLAYORDER=
